<?xml version="1.0" encoding="UTF-8" standalone="no"?>
<svg
   xmlns:dc="http://purl.org/dc/elements/1.1/"
   xmlns:cc="http://creativecommons.org/ns#"
   xmlns:rdf="http://www.w3.org/1999/02/22-rdf-syntax-ns#"
   xmlns:svg="http://www.w3.org/2000/svg"
   xmlns="http://www.w3.org/2000/svg"
   xmlns:sodipodi="http://sodipodi.sourceforge.net/DTD/sodipodi-0.dtd"
   xmlns:inkscape="http://www.inkscape.org/namespaces/inkscape"
   version="1.1"
   id="Layer_1"
   x="0px"
   y="0px"
   viewBox="0 0 115.77 122.88"
   style="enable-background:new 0 0 115.77 122.88"
   xml:space="preserve"
   sodipodi:docname="copy.svg"
   inkscape:version="0.92.4 (5da689c313, 2019-01-14)"><metadata
     id="metadata13"><rdf:RDF><cc:Work
         rdf:about=""><dc:format>image/svg+xml</dc:format><dc:type
           rdf:resource="http://purl.org/dc/dcmitype/StillImage" /></cc:Work></rdf:RDF></metadata><defs
     id="defs11" /><sodipodi:namedview
     pagecolor="#ffffff"
     bordercolor="#666666"
     borderopacity="1"
     objecttolerance="10"
     gridtolerance="10"
     guidetolerance="10"
     inkscape:pageopacity="0"
     inkscape:pageshadow="2"
     inkscape:window-width="1920"
     inkscape:window-height="1017"
     id="namedview9"
     showgrid="false"
     inkscape:zoom="1.920573"
     inkscape:cx="-6.939407"
     inkscape:cy="61.439999"
     inkscape:window-x="-8"
     inkscape:window-y="-8"
     inkscape:window-maximized="1"
     inkscape:current-layer="g6" /><style
     type="text/css"
     id="style2">.st0{fill-rule:evenodd;clip-rule:evenodd;}</style><g
     id="g6"><rect
       style="opacity:0.9;fill:#ffffff;fill-opacity:1;stroke:none;stroke-width:0.38787693;stroke-linecap:round;stroke-linejoin:round;stroke-miterlimit:2;stroke-dasharray:none;stroke-dashoffset:4.19999981;stroke-opacity:1;paint-order:markers fill stroke"
       id="rect4527-7"
       width="74.977623"
       height="82.257088"
       x="34.720001"
       y="29.484606" /><rect
       style="opacity:0.9;fill:#ffffff;fill-opacity:1;stroke:none;stroke-width:0.37795275;stroke-linecap:round;stroke-linejoin:round;stroke-miterlimit:2;stroke-dasharray:none;stroke-dashoffset:4.19999981;stroke-opacity:1;paint-order:markers fill stroke"
       id="rect4527"
       width="74.977623"
       height="78.101692"
       x="9.3722029"
       y="7.8101692" /><path
       style="clip-rule:evenodd;fill-rule:evenodd"
       inkscape:connector-curvature="0"
       class="st0"
       d="m 89.62,13.96 v 7.73 h 12.19 0.01 v 0.02 c 3.85,0.01 7.34,1.57 9.86,4.1 2.5,2.51 4.06,5.98 4.07,9.82 h 0.02 v 0.02 73.27 0.01 h -0.02 c -0.01,3.84 -1.57,7.33 -4.1,9.86 -2.51,2.5 -5.98,4.06 -9.82,4.07 v 0.02 h -0.02 -61.7 -0.01 v -0.02 c -3.84,-0.01 -7.34,-1.57 -9.86,-4.1 -2.5,-2.51 -4.06,-5.98 -4.07,-9.82 H 26.15 V 108.92 92.51 H 13.96 13.95 V 92.49 C 10.11,92.48 6.61,90.92 4.09,88.39 1.59,85.88 0.03,82.41 0.02,78.57 H 0 V 78.55 13.96 13.95 H 0.02 C 0.03,10.1 1.6,6.61 4.12,4.09 6.63,1.59 10.1,0.03 13.94,0.02 V 0 h 0.02 61.7 0.01 v 0.02 c 3.85,0.01 7.34,1.57 9.86,4.1 2.5,2.51 4.06,5.98 4.07,9.82 h 0.02 z m -10.58,7.73 v -7.73 -0.02 h 0.02 c 0,-0.91 -0.39,-1.75 -1.01,-2.37 -0.61,-0.61 -1.46,-1 -2.37,-1 v 0.02 h -0.01 -61.7 -0.02 v -0.02 c -0.91,0 -1.75,0.39 -2.37,1.01 -0.61,0.61 -1,1.46 -1,2.37 h 0.02 v 0.01 64.59 0.02 h -0.02 c 0,0.91 0.39,1.75 1.01,2.37 0.61,0.61 1.46,1 2.37,1 v -0.02 h 0.01 12.19 V 35.65 35.64 h 0.02 c 0.01,-3.85 1.58,-7.34 4.1,-9.86 2.51,-2.5 5.98,-4.06 9.82,-4.07 v -0.02 h 0.02 z m 26.14,87.23 V 35.65 35.63 h 0.02 c 0,-0.91 -0.39,-1.75 -1.01,-2.37 -0.61,-0.61 -1.46,-1 -2.37,-1 v 0.02 h -0.01 -61.7 -0.02 v -0.02 c -0.91,0 -1.75,0.39 -2.37,1.01 -0.61,0.61 -1,1.46 -1,2.37 h 0.02 v 0.01 73.27 0.02 h -0.02 c 0,0.91 0.39,1.75 1.01,2.37 0.61,0.61 1.46,1 2.37,1 v -0.02 h 0.01 61.7 0.02 v 0.02 c 0.91,0 1.75,-0.39 2.37,-1.01 0.61,-0.61 1,-1.46 1,-2.37 h -0.02 z"
       id="path4" /></g></svg>